#!OML:ASF H:\LiuWeirdWalks\Patient Classification 1\Patient 1\Session 1\male.ASF
:FULLY-SPECIFIED
:DEGREES
4391
root 1.9653 17.9595 38.4634 546.622 357.588 180.614
lowerback 2.07017 -3.09096 -1.32869
upperback -1.2304 -4.21831 3.99876
thorax -2.029 -2.1183 5.02403
lowerneck -13.9645 1.66363 3.75527
upperneck 29.0302 5.39298 -6.48997
head 12.1388 2.72061 -2.15714
rclavicle -2.33572e-014 -3.97569e-015
rhumerus -36.4568 -10.5611 -73.1317
rradius 22.7889
rwrist -2.41117
rhand -15.7634 -4.84775
rfingers 7.12502
rthumb 10.4284 -34.5691
lclavicle -2.33572e-014 -3.97569e-015
lhumerus -34.4672 11.8673 81.7933
lradius 35.8959
lwrist 10.986
lhand -14.7008 -2.41664
lfingers 7.12502
lthumb 11.4533 27.2505
rfemur -16.4653 -4.76541 20.6068
rtibia 33.9001
rfoot -16.6558 -18.5316
rtoes -1.37293
lfemur -13.205 -2.24155 -19.8305
ltibia 27.3544
lfoot -13.492 14.6297
ltoes -7.50275
4392
root 1.95873 17.9671 38.4611 546.776 357.872 180.686
lowerback 2.04982 -3.06689 -1.16295
upperback -1.25621 -4.18375 4.00851
thorax -2.05835 -2.10379 4.93991
lowerneck -14.0644 1.78608 3.8156
upperneck 28.7076 5.48166 -6.57241
head 12.042 2.73357 -2.18515
rclavicle 2.08724e-015 2.46493e-014
rhumerus -36.4768 -10.3617 -73.2357
rradius 22.7535
rwrist -2.33729
rhand -15.6801 -4.95854
rfingers 7.12502
rthumb 10.5088 -34.6758
lclavicle 2.08724e-015 2.46493e-014
lhumerus -34.6044 12.1065 81.7598
lradius 35.5757
lwrist 11.0709
lhand -14.7688 -2.30925
lfingers 7.12502
lthumb 11.3878 27.3615
rfemur -16.5887 -4.89754 20.6331
rtibia 33.7254
rfoot -16.559 -18.0709
rtoes -1.42093
lfemur -13.3397 -2.23146 -19.8188
ltibia 27.3528
lfoot -13.386 14.9899
ltoes -7.4629
4393
root 1.95405 17.9731 38.4588 546.893 358.179 180.739
lowerback 2.07841 -3.01674 -1.06796
upperback -1.27838 -4.11537 4.02094
thorax -2.10925 -2.07075 4.90058
lowerneck -14.1619 1.8782 3.88666
upperneck 28.3732 5.52819 -6.67565
head 11.9389 2.72684 -2.22879
rclavicle -2.5345e-014 2.06736e-014
rhumerus -36.5263 -10.156 -73.3328
rradius 22.7796
rwrist -2.34728
rhand -15.6118 -5.13163
rfingers 7.12502
rthumb 10.5746 -34.8456
lclavicle -2.5345e-014 2.06736e-014
lhumerus -34.7481 12.2414 81.7731
lradius 35.2541
lwrist 11.1718
lhand -14.7901 -2.23399
lfingers 7.12502
lthumb 11.3671 27.4379
rfemur -16.6872 -4.99249 20.6422
rtibia 33.5882
rfoot -16.4961 -17.6364
rtoes -1.45415
lfemur -13.4261 -2.14693 -19.8191
ltibia 27.3376
lfoot -13.3035 15.2709
ltoes -7.46064
4394
root 1.95241 17.9779 38.4558 546.975 358.494 180.764
lowerback 2.15004 -2.98335 -1.04766
upperback -1.30101 -4.07085 4.04416
thorax -2.17667 -2.04813 4.91798
lowerneck -14.2105 1.98829 3.95522
upperneck 27.9886 5.60542 -6.80591
head 11.81 2.7317 -2.27733
rclavicle 1.38155e-014 1.03368e-014
rhumerus -36.579 -9.85009 -73.4576
rradius 22.8523
rwrist -2.42626
rhand -15.5517 -5.31417
rfingers 7.12502
rthumb 10.6326 -35.0252
lclavicle 1.38155e-014 1.03368e-014
lhumerus -34.9382 12.368 81.7899
lradius 34.9516
lwrist 11.2787
lhand -14.7299 -2.21336
lfingers 7.12502
lthumb 11.4252 27.4553
rfemur -16.7487 -5.02696 20.6318
rtibia 33.4749
rfoot -16.4569 -17.265
rtoes -1.46961
lfemur -13.4601 -2.0014 -19.8341
ltibia 27.3069
lfoot -13.2393 15.4699
ltoes -7.49546
4395
root 1.95133 17.9816 38.4535 547.044 358.837 180.785
lowerback 2.24993 -2.95029 -1.03508
upperback -1.33152 -4.02632 4.06521
thorax -2.26776 -2.02479 4.93961
lowerneck -14.3072 2.06738 3.96594
upperneck 27.7382 5.67332 -6.90691
head 11.7411 2.73408 -2.30594
rclavicle -3.28989e-014 3.18055e-015
rhumerus -36.6467 -9.48947 -73.6032
rradius 22.9653
rwrist -2.55697
rhand -15.4949 -5.45927
rfingers 7.12502
rthumb 10.6874 -35.1674
lclavicle -3.28989e-014 3.18055e-015
lhumerus -35.1635 12.4455 81.8129
lradius 34.6655
lwrist 11.3819
lhand -14.6436 -2.19689
lfingers 7.12502
lthumb 11.5084 27.4672
rfemur -16.8092 -5.01441 20.617
rtibia 33.3756
rfoot -16.4131 -16.9263
rtoes -1.4715
lfemur -13.4774 -1.83273 -19.8517
ltibia 27.2717
lfoot -13.1902 15.6413
ltoes -7.53753
4396
root 1.95307 17.9843 38.4497 547.076 359.132 180.804
lowerback 2.36464 -2.92804 -1.04991
upperback -1.34359 -3.99685 4.08631
thorax -2.345 -2.00875 4.97724
lowerneck -14.3681 2.15553 4.00196
upperneck 27.429 5.73946 -7.01404
head 11.6432 2.7374 -2.34133
rclavicle 3.3694e-014 2.70347e-014
rhumerus -36.7161 -9.13142 -73.759
rradius 23.1149
rwrist -2.72911
rhand -15.4426 -5.55747
rfingers 7.12502
rthumb 10.7379 -35.263
lclavicle 3.3694e-014 2.70347e-014
lhumerus -35.3629 12.442 81.8565
lradius 34.3718
lwrist 11.456
lhand -14.5158 -2.18471
lfingers 7.12502
lthumb 11.6317 27.4724
rfemur -16.814 -4.93779 20.6189
rtibia 33.2824
rfoot -16.384 -16.7107
rtoes -1.4649
lfemur -13.4512 -1.64943 -19.8493
ltibia 27.238
lfoot -13.158 15.7361
ltoes -7.60836
4397
root 1.95505 17.9862 38.4462 547.101 359.429 180.836
lowerback 2.47591 -2.8967 -1.05538
upperback -1.34481 -3.95523 4.10666
thorax -2.41094 -1.98712 5.00763
lowerneck -14.4471 2.24035 4.03737
upperneck 27.146 5.80024 -7.10326
head 11.5588 2.74091 -2.37049
rclavicle -6.09275e-014 7.15625e-014
rhumerus -36.7797 -8.78448 -73.9167
rradius 23.2926
rwrist -2.92439
rhand -15.3932 -5.58977
rfingers 7.12502
rthumb 10.7855 -35.2929
lclavicle -6.09275e-014 7.15625e-014
lhumerus -35.5308 12.3652 81.9275
lradius 34.071
lwrist 11.4875
lhand -14.3586 -2.18155
lfingers 7.12502
lthumb 11.7834 27.467
rfemur -16.8163 -4.8072 20.6376
rtibia 33.1923
rfoot -16.3406 -16.5602
rtoes -1.45695
lfemur -13.4247 -1.46456 -19.8317
ltibia 27.2149
lfoot -13.1389 15.823
ltoes -7.68617
4398
root 1.95757 17.9879 38.4416 547.152 359.641 180.873
lowerback 2.50364 -2.73911 -1.19956
upperback -1.32935 -3.75117 4.16074
thorax -2.4171 -1.88344 5.1396
lowerneck -14.5457 2.18029 4.19295
upperneck 26.894 5.64618 -7.2621
head 11.4806 2.65326 -2.47736
rclavicle -1.91827e-014 -2.22639e-014
rhumerus -36.9461 -8.76746 -73.8555
rradius 23.5464
rwrist -3.18379
rhand -15.34 -5.56511
rfingers 7.12502
rthumb 10.8368 -35.2655
lclavicle -1.91827e-014 -2.22639e-014
lhumerus -35.5249 11.8751 82.2688
lradius 33.6995
lwrist 11.4214
lhand -14.2127 -2.15343
lfingers 7.12502
lthumb 11.924 27.487
rfemur -16.832 -4.65959 20.6809
rtibia 33.1032
rfoot -16.2979 -16.5183
rtoes -1.44407
lfemur -13.4356 -1.3046 -19.7938
ltibia 27.2026
lfoot -13.1232 15.8609
ltoes -7.803
4399
root 1.96036 17.9892 38.4371 547.198 359.845 180.922
lowerback 2.53387 -2.61771 -1.28676
upperback -1.30937 -3.59356 4.20247
thorax -2.42093 -1.80399 5.22814
lowerneck -14.6358 2.15644 4.32773
upperneck 26.6426 5.54031 -7.38576
head 11.4027 2.58922 -2.56033
rclavicle -1.3418e-014 9.54166e-015
rhumerus -37.066 -8.66916 -73.8756
rradius 23.8079
rwrist -3.46657
rhand -15.3207 -5.53384
rfingers 7.12502
rthumb 10.8555 -35.2333
lclavicle -1.3418e-014 9.54166e-015
lhumerus -35.5173 11.4194 82.5542
lradius 33.3204
lwrist 11.2839
lhand -14.042 -2.11647
lfingers 7.12502
lthumb 12.0886 27.5143
rfemur -16.8447 -4.47505 20.7436
rtibia 33.0179
rfoot -16.2443 -16.5373
rtoes -1.43137
lfemur -13.4489 -1.14058 -19.7426
ltibia 27.2027
lfoot -13.1172 15.8996
ltoes -7.94129
